<svg width="512" height="512" viewBox="0 0 512 512" fill="none" xmlns="http://www.w3.org/2000/svg">
  <!-- Background -->
  <rect width="512" height="512" rx="64" fill="#3b82f6"/>

  <!-- Main Icon - Stylized Brain/Mind Symbol -->
  <g transform="translate(96, 96)">
    <!-- Brain outline -->
    <path d="M160 64C186.51 64 208 85.49 208 112C208 120.84 205.47 129 201 136C218.33 146.67 232 165.33 232 187.5C232 219.97 205.97 246 173.5 246H86.5C54.03 246 28 219.97 28 187.5C28 165.33 41.67 146.67 59 136C54.53 129 52 120.84 52 112C52 85.49 73.49 64 100 64C113.25 64 125.18 69.82 133.5 79C141.82 69.82 153.75 64 160 64Z" fill="white" stroke="white" stroke-width="4"/>

    <!-- Inner brain details -->
    <circle cx="90" cy="120" r="8" fill="#3b82f6"/>
    <circle cx="170" cy="120" r="8" fill="#3b82f6"/>
    <path d="M100 160C110 150 130 150 160 160" stroke="#3b82f6" stroke-width="3" fill="none" stroke-linecap="round"/>
    <path d="M80 180C100 190 140 190 180 180" stroke="#3b82f6" stroke-width="3" fill="none" stroke-linecap="round"/>
  </g>

  <!-- ADHD-focused design elements -->
  <g transform="translate(128, 320)">
    <!-- Checkboxes representing todos -->
    <rect x="0" y="0" width="24" height="24" rx="4" fill="white" stroke="#3b82f6" stroke-width="2"/>
    <path d="M6 12L10 16L18 8" stroke="#10b981" stroke-width="2" fill="none" stroke-linecap="round" stroke-linejoin="round"/>

    <rect x="40" y="0" width="24" height="24" rx="4" fill="white" stroke="#3b82f6" stroke-width="2"/>
    <path d="M46 12L50 16L58 8" stroke="#10b981" stroke-width="2" fill="none" stroke-linecap="round" stroke-linejoin="round"/>

    <rect x="80" y="0" width="24" height="24" rx="4" fill="white" stroke="#3b82f6" stroke-width="2"/>

    <!-- Task lines -->
    <rect x="120" y="4" width="136" height="4" rx="2" fill="white" opacity="0.8"/>
    <rect x="120" y="12" width="96" height="4" rx="2" fill="white" opacity="0.6"/>
    <rect x="120" y="20" width="76" height="4" rx="2" fill="white" opacity="0.4"/>
  </g>

  <!-- App title -->
  <text x="256" y="450" text-anchor="middle" fill="white" font-family="sans-serif" font-size="32" font-weight="bold">ADHDO</text>
</svg>
